<svg width="96" height="96" xmlns="http://www.w3.org/2000/svg" xmlns:xlink="http://www.w3.org/1999/xlink" overflow="hidden"><defs><clipPath id="clip0"><rect x="0" y="0" width="96" height="96"/></clipPath></defs><g clip-path="url(#clip0)"><path d="M33 27.586 29.707 24.293 28.293 25.707 33 30.414 42.707 20.707 41.293 19.293 33 27.586Z" fill="#000000" fill-rule="nonzero" fill-opacity="1"/><path d="M49 25 68 25 68 27 49 27Z" fill="#000000" fill-rule="nonzero" fill-opacity="1"/><path d="M33 42.586 29.707 39.293 28.293 40.707 33 45.414 42.707 35.707 41.293 34.293 33 42.586Z" fill="#000000" fill-rule="nonzero" fill-opacity="1"/><path d="M49 40 68 40 68 42 49 42Z" fill="#000000" fill-rule="nonzero" fill-opacity="1"/><path d="M33 57.586 29.707 54.293 28.293 55.707 33 60.414 42.707 50.707 41.293 49.293 33 57.586Z" fill="#000000" fill-rule="nonzero" fill-opacity="1"/><path d="M49 55 68 55 68 57 49 57Z" fill="#000000" fill-rule="nonzero" fill-opacity="1"/><path d="M33 72.586 29.707 69.293 28.293 70.707 33 75.414 42.707 65.707 41.293 64.293 33 72.586Z" fill="#000000" fill-rule="nonzero" fill-opacity="1"/><path d="M49 70 68 70 68 72 49 72Z" fill="#000000" fill-rule="nonzero" fill-opacity="1"/><path d="M18 88 78 88 78 8 18 8ZM20 10 76 10 76 86 20 86Z" fill="#000000" fill-rule="nonzero" fill-opacity="1"/></g></svg>