<?xml version="1.0" standalone="no"?>
<!DOCTYPE svg PUBLIC "-//W3C//DTD SVG 20010904//EN"
 "http://www.w3.org/TR/2001/REC-SVG-20010904/DTD/svg10.dtd">
<svg version="1.0" xmlns="http://www.w3.org/2000/svg"
 width="300.000000pt" height="300.000000pt" viewBox="0 0 300.000000 300.000000"
 preserveAspectRatio="xMidYMid meet">
<metadata>
Created by potrace 1.11, written by Peter Selinger 2001-2013
</metadata>
<g transform="translate(0.000000,300.000000) scale(0.100000,-0.100000)"
fill="#000000" stroke="none">
<path d="M250 2250 l0 -500 500 0 500 0 0 125 0 125 -375 0 -375 0 0 250 0
250 375 0 375 0 0 125 0 125 -500 0 -500 0 0 -500z"/>
<path d="M1750 2500 l0 -250 125 0 125 0 0 125 0 125 250 0 250 0 0 -250 0
-250 -375 0 -375 0 0 -125 0 -125 500 0 500 0 0 500 0 500 -500 0 -500 0 0
-250z"/>
<path d="M1000 1000 l0 -500 -250 0 -250 0 0 250 0 250 125 0 125 0 0 125 0
125 -250 0 -250 0 0 -500 0 -500 500 0 500 0 0 625 0 625 -125 0 -125 0 0
-500z"/>
<path d="M1750 750 l0 -500 375 0 375 0 0 125 0 125 -250 0 -250 0 0 250 0
250 250 0 250 0 0 -125 0 -125 125 0 125 0 0 250 0 250 -500 0 -500 0 0 -500z"/>
</g>
</svg>
